<svg width="38" height="38" viewBox="0 0 38 38" fill="none" xmlns="http://www.w3.org/2000/svg">
<path d="M14.5784 24.2841C14.3472 24.2841 14.1214 24.2373 13.9004 24.1709V31.5308C13.9004 31.9607 14.1703 32.3439 14.5751 32.4883C14.687 32.529 14.8029 32.548 14.9175 32.548C15.2159 32.548 15.5068 32.4164 15.7034 32.1757L22.1813 24.2841H19.5496L15.9347 28.6883V24.2841H14.5784Z" fill="#C6A598"/>
<path d="M9.64851 17.503L11.2068 18.0854L10.8894 15.7949L10.1889 15.5331C10.0743 15.4904 9.95427 15.4688 9.83224 15.4688H1.01715C0.455674 15.4688 0 15.9244 0 16.4858C0 17.0473 0.455674 17.503 1.01715 17.503H9.64851Z" fill="#C6A598"/>
<path d="M37.9998 27.7596C37.9998 25.0296 35.7865 22.8163 33.0565 22.8163C31.7851 22.8163 30.629 23.3005 29.7528 24.0898L26.8031 21.9375L26.1027 22.6624C25.8836 22.8842 25.5995 23.1208 25.2822 23.3452L28.5519 25.7314C28.2726 26.3504 28.1131 27.036 28.1131 27.7596C28.1131 30.4896 30.3264 32.7029 33.0564 32.7029C35.7864 32.7029 37.9998 30.4896 37.9998 27.7596ZM33.0565 29.4392C32.1411 29.4392 31.3999 28.7062 31.3802 27.7955C31.3802 27.7833 31.3768 27.7717 31.3768 27.7595C31.3768 26.9974 31.8881 26.3606 32.5838 26.1559C32.7344 26.1111 32.891 26.0799 33.0564 26.0799C33.984 26.0799 34.7361 26.8319 34.7361 27.7596C34.7361 28.6872 33.9841 29.4392 33.0565 29.4392Z" fill="#C6A598"/>
<path d="M25.7457 21.1647L32.612 14.0597C33.1362 13.5294 32.9551 13.4346 32.2092 13.4346H13.2228C12.4769 13.4346 11.9527 13.7844 12.0585 14.5229L12.3162 16.328L12.6437 18.6226L13.0309 21.3309C13.1042 21.8435 13.4649 22.4071 13.926 22.7081C14.1295 22.841 14.3505 22.9278 14.579 22.9278H15.9351H20.6635H22.8292C22.9961 22.9278 23.1792 22.8939 23.3663 22.841C23.624 22.7685 23.8905 22.6538 24.1454 22.5148C24.5333 22.3039 24.8933 22.0415 25.1381 21.7933L25.7457 21.1647Z" fill="#C6A598"/>
<path d="M25.7669 7.33214H22.0374L20.9355 5.29785H18.647L16.867 8.68832H15.2566L13.9004 12.0787H30.8526L29.7507 10.0445H27.4621L25.7669 7.33214Z" fill="#C6A598"/>
</svg>
