<svg width="28" height="28" viewBox="0 0 28 28" fill="none" xmlns="http://www.w3.org/2000/svg">
<path d="M13.9997 2.33301C7.56667 2.33301 2.33301 7.56667 2.33301 13.9997C2.33301 20.4327 7.56667 25.6663 13.9997 25.6663C20.4327 25.6663 25.6663 20.4327 25.6663 13.9997C25.6663 7.56667 20.4327 2.33301 13.9997 2.33301ZM4.66634 13.9997C4.66634 12.9508 4.84834 11.944 5.16917 11.0025L6.99967 12.833L9.33301 15.1663V17.4997L11.6663 19.833L12.833 20.9997V23.2525C8.23751 22.675 4.66634 18.7503 4.66634 13.9997ZM21.3847 19.6848C20.6228 19.0712 19.4678 18.6663 18.6663 18.6663V17.4997C18.6663 16.8808 18.4205 16.2873 17.9829 15.8498C17.5453 15.4122 16.9518 15.1663 16.333 15.1663H11.6663V11.6663C12.2852 11.6663 12.8787 11.4205 13.3163 10.9829C13.7538 10.5453 13.9997 9.95185 13.9997 9.33301V8.16634H15.1663C15.7852 8.16634 16.3787 7.92051 16.8163 7.48292C17.2538 7.04534 17.4997 6.45185 17.4997 5.83301V5.35351C20.9157 6.74067 23.333 10.0913 23.333 13.9997C23.3328 16.0585 22.6473 18.0587 21.3847 19.6848Z" fill="#C6A598"/>
</svg>
