<svg width="31" height="30" viewBox="0 0 31 30" fill="none" xmlns="http://www.w3.org/2000/svg">
<g clip-path="url(#clip0)">
<path d="M25.2085 19.3994C23.7764 19.3994 22.6113 20.5436 22.6113 21.9494C22.6113 23.3555 23.7764 24.4994 25.2085 24.4994C26.6404 24.4994 27.8058 23.3555 27.8058 21.9494C27.8058 20.5436 26.6404 19.3994 25.2085 19.3994ZM25.2085 22.6994C24.7872 22.6994 24.4447 22.3631 24.4447 21.9494C24.4447 21.5357 24.7872 21.1994 25.2085 21.1994C25.6299 21.1994 25.9724 21.5357 25.9724 21.9494C25.9724 22.3631 25.6299 22.6994 25.2085 22.6994Z" fill="#C6A598"/>
<path d="M24.9598 8.7998H20.4724C20.1348 8.7998 19.8613 9.06863 19.8613 9.3998V21.0998C19.8613 21.431 20.1348 21.6998 20.4724 21.6998H21.1205C21.4231 21.6998 21.691 21.4859 21.7301 21.1913C21.97 19.3871 23.4357 18.2681 25.2089 18.2681C26.982 18.2681 28.4477 19.3872 28.6876 21.1913C28.7267 21.4859 28.9944 21.6998 29.2972 21.6998H29.9446C30.2819 21.6998 30.5557 21.431 30.5557 21.0998V15.2498C30.5557 15.1088 30.5053 14.9726 30.4133 14.8649L25.4285 9.0149C25.3125 8.87873 25.1407 8.7998 24.9598 8.7998ZM21.0836 13.5998V10.5998C21.0836 10.2686 21.357 9.9998 21.6947 9.9998H24.3866C24.5678 9.9998 24.7398 10.079 24.8559 10.2158L27.4021 13.2158C27.7336 13.6067 27.4507 14.1998 26.9325 14.1998H21.6947C21.357 14.1998 21.0836 13.9313 21.0836 13.5998Z" fill="#C6A598"/>
<path d="M0.611111 21.7H2.17589C2.4784 21.7 2.74636 21.4861 2.78545 21.1915C3.0253 19.3873 4.49107 18.2683 6.26419 18.2683C8.03731 18.2683 9.50308 19.3873 9.74293 21.1915C9.78202 21.4861 10.0497 21.7 10.3525 21.7H18.0278C18.3651 21.7 18.6389 21.4312 18.6389 21.1V6.1C18.6389 5.76882 18.3651 5.5 18.0278 5.5H0.611111C0.273452 5.5 0 5.76882 0 6.1V21.1C0 21.4312 0.273452 21.7 0.611111 21.7Z" fill="#C6A598"/>
<path d="M6.26421 19.3994C4.8321 19.3994 3.66699 20.5436 3.66699 21.9494C3.66699 23.3555 4.8321 24.4994 6.26421 24.4994C7.69603 24.4994 8.86144 23.3555 8.86144 21.9494C8.86144 20.5436 7.69603 19.3994 6.26421 19.3994ZM6.26421 22.6994C5.84288 22.6994 5.50033 22.3631 5.50033 21.9494C5.50033 21.5357 5.84288 21.1994 6.26421 21.1994C6.68555 21.1994 7.0281 21.5357 7.0281 21.9494C7.0281 22.3631 6.68555 22.6994 6.26421 22.6994Z" fill="#C6A598"/>
</g>
<defs>
<clipPath id="clip0">
<rect width="30.5556" height="30" fill="white"/>
</clipPath>
</defs>
</svg>
