<svg width="25" height="25" viewBox="0 0 25 25" fill="none" xmlns="http://www.w3.org/2000/svg">
<path d="M24.4565 21.7393C23.2196 21.7393 22.5772 22.4393 22.062 23.0023C21.5957 23.511 21.2261 23.9131 20.4674 23.9131C19.7087 23.9131 19.3391 23.511 18.8718 23.0023C18.3555 22.4392 17.712 21.7393 16.4761 21.7393C15.2413 21.7393 14.6 22.4393 14.0837 23.0023C13.6174 23.511 13.2489 23.9131 12.4924 23.9131C11.7369 23.9131 11.3685 23.511 10.9022 23.0023C10.3869 22.4403 9.74561 21.7393 8.50974 21.7393C7.27387 21.7393 6.63255 22.4403 6.11734 23.0023C5.6521 23.511 5.28362 23.9131 4.5271 23.9131C3.77058 23.9131 3.4021 23.511 2.9358 23.0023C2.42058 22.4403 1.77819 21.7393 0.543393 21.7393C0.243495 21.7393 0 21.9827 0 22.2827C0 22.5827 0.243495 22.8262 0.543495 22.8262C1.30002 22.8262 1.66849 23.2284 2.1348 23.737C2.65002 24.299 3.29241 25.0001 4.5272 25.0001C5.762 25.0001 6.40327 24.299 6.91961 23.737C7.38485 23.2284 7.75439 22.8262 8.50984 22.8262C9.2653 22.8262 9.63377 23.2284 10.1001 23.737C10.6153 24.299 11.2577 25.0001 12.4925 25.0001C13.7273 25.0001 14.3686 24.3001 14.8849 23.737C15.3512 23.2284 15.7197 22.8262 16.4762 22.8262C17.2338 22.8262 17.6034 23.2284 18.0708 23.737C18.587 24.299 19.2294 25.0001 20.4664 25.0001C21.7034 25.0001 22.3458 24.3001 22.8621 23.737C23.3282 23.2284 23.6978 22.8262 24.4565 22.8262C24.7565 22.8262 25 22.5827 25 22.2827C25 21.9827 24.7565 21.7393 24.4565 21.7393Z" fill="#5489F0"/>
<path d="M24.4565 19.5654C23.2196 19.5654 22.5772 20.2654 22.062 20.8285C21.5957 21.3372 21.2261 21.7393 20.4674 21.7393C19.7087 21.7393 19.3391 21.3372 18.8718 20.8285C18.3554 20.2654 17.712 19.5654 16.4761 19.5654C15.2413 19.5654 14.6 20.2654 14.0837 20.8285C13.6174 21.3372 13.2489 21.7393 12.4924 21.7393C11.7369 21.7393 11.3685 21.3372 10.9022 20.8285C10.3869 20.2665 9.74566 19.5654 8.50979 19.5654C7.27392 19.5654 6.6326 20.2665 6.11739 20.8285C5.65215 21.3372 5.28367 21.7393 4.52715 21.7393C3.77063 21.7393 3.40215 21.3372 2.93585 20.8285C2.42063 20.2665 1.77824 19.5654 0.543495 19.5654C0.243495 19.5654 0 19.8089 0 20.1089C0 20.4089 0.243495 20.6524 0.543495 20.6524C1.30002 20.6524 1.66849 21.0546 2.1348 21.5633C2.65002 22.1252 3.29241 22.8263 4.52715 22.8263C5.7619 22.8263 6.40322 22.1252 6.91956 21.5633C7.38479 21.0546 7.75434 20.6524 8.50979 20.6524C9.26524 20.6524 9.63372 21.0546 10.1 21.5633C10.6152 22.1252 11.2576 22.8263 12.4924 22.8263C13.7272 22.8263 14.3685 22.1263 14.8848 21.5633C15.3511 21.0546 15.7196 20.6524 16.4761 20.6524C17.2337 20.6524 17.6033 21.0546 18.0707 21.5633C18.5869 22.1252 19.2293 22.8263 20.4663 22.8263C21.7032 22.8263 22.3456 22.1263 22.8619 21.5633C23.3282 21.0546 23.6978 20.6524 24.4565 20.6524C24.7565 20.6524 25 20.4089 25 20.1089C25 19.8089 24.7565 19.5654 24.4565 19.5654Z" fill="#5489F0"/>
<path d="M22.7629 13.3333C22.6879 13.192 22.5553 13.0909 22.3999 13.0561L12.6173 10.8822C12.5401 10.8648 12.4585 10.8648 12.3814 10.8822L2.5988 13.0561C2.44335 13.0909 2.31077 13.192 2.23577 13.3333C2.16184 13.4746 2.15318 13.6409 2.21188 13.7887L5.46831 21.9289C5.53353 22.092 5.67268 22.2137 5.84331 22.255C6.01288 22.2931 6.19329 22.2539 6.32699 22.1398C6.53242 21.9627 6.71829 21.7637 6.90309 21.5637C7.37485 21.0539 7.74659 20.6517 8.50963 20.6517C9.27267 20.6517 9.64441 21.055 10.1162 21.5637C10.3053 21.7681 10.4966 21.9724 10.7075 22.1529C10.8053 22.2366 10.9303 22.2822 11.0586 22.2822H11.9564V13.5866C11.9564 13.2866 12.1999 13.0431 12.4999 13.0431C12.7999 13.0431 13.0433 13.2866 13.0433 13.5866V22.2822H13.9259C14.0553 22.2822 14.1792 22.2366 14.2781 22.1529C14.4901 21.9724 14.6803 21.7691 14.8694 21.5637C15.3411 21.0539 15.7129 20.6517 16.4759 20.6517C17.2412 20.6517 17.614 21.055 18.0857 21.5648C18.2727 21.7669 18.4618 21.9691 18.6716 22.1474C18.8053 22.2605 18.9825 22.3029 19.1542 22.2615C19.3238 22.2191 19.4629 22.0985 19.5282 21.9354L22.7868 13.7887C22.8465 13.6398 22.8379 13.4735 22.7629 13.3333Z" fill="#5489F0"/>
<path d="M7.06547 0C6.76547 0 6.52197 0.243495 6.52197 0.543495V2.17393H10.8698V0H7.06547Z" fill="#5489F0"/>
<path d="M17.9348 0H11.9565V2.17393H18.4783V0.543495C18.4783 0.243495 18.2348 0 17.9348 0Z" fill="#5489F0"/>
<path d="M11.9567 3.26074H8.6958V6.52161H11.9567V3.26074Z" fill="#5489F0"/>
<path d="M20.1086 3.26074H16.3042V6.52161H20.652V3.80424C20.652 3.50424 20.4086 3.26074 20.1086 3.26074Z" fill="#5489F0"/>
<path d="M13.0435 7.6084V9.86385L15.2174 10.3465V7.6084H13.0435Z" fill="#5489F0"/>
<path d="M8.6958 7.6084V10.5878L11.9567 9.86385V7.6084H8.6958Z" fill="#5489F0"/>
<path d="M4.89115 3.26074C4.59115 3.26074 4.34766 3.50424 4.34766 3.80424V6.52161H7.60852V3.26074H4.89115Z" fill="#5489F0"/>
<path d="M16.3042 7.6084V10.5878L19.9912 11.4073C20.0303 11.416 20.0694 11.4204 20.1086 11.4204C20.2314 11.4204 20.3509 11.379 20.4488 11.3008C20.577 11.1975 20.652 11.0421 20.652 10.8769V7.6084H16.3042Z" fill="#5489F0"/>
<path d="M4.34766 7.6084V10.8769C4.34766 11.0421 4.42266 11.1975 4.5509 11.3008C4.68027 11.4041 4.8509 11.4421 5.00849 11.4073L7.60848 10.8301V7.6084H4.34766Z" fill="#5489F0"/>
<path d="M15.2174 3.26074H13.0435V6.52161H15.2174V3.26074Z" fill="#5489F0"/>
</svg>
