<svg width="30" height="30" viewBox="0 0 30 30" fill="none" xmlns="http://www.w3.org/2000/svg">
<path d="M29.3478 26.0869C27.8635 26.0869 27.0926 26.9269 26.4743 27.6025C25.9148 28.213 25.4713 28.6956 24.5609 28.6956C23.6504 28.6956 23.207 28.213 22.6461 27.6025C22.0266 26.9269 21.2544 26.0869 19.7713 26.0869C18.2896 26.0869 17.52 26.9269 16.9004 27.6025C16.3409 28.213 15.8987 28.6956 14.9909 28.6956C14.0843 28.6956 13.6421 28.213 13.0826 27.6025C12.4643 26.9282 11.6947 26.0869 10.2117 26.0869C8.72865 26.0869 7.95906 26.9282 7.3408 27.6025C6.78252 28.213 6.34035 28.6956 5.43252 28.6956C4.5247 28.6956 4.08252 28.213 3.52296 27.6025C2.9047 26.9282 2.13383 26.0869 0.652072 26.0869C0.292194 26.0869 0 26.379 0 26.739C0 27.099 0.292194 27.3912 0.652194 27.3912C1.56002 27.3912 2.00219 27.8738 2.56176 28.4843C3.18002 29.1586 3.95089 29.9999 5.43265 29.9999C6.9144 29.9999 7.68393 29.1586 8.30353 28.4843C8.86182 27.8738 9.30527 27.3912 10.2118 27.3912C11.1184 27.3912 11.5605 27.8738 12.1201 28.4843C12.7384 29.1586 13.5092 29.9999 14.991 29.9999C16.4727 29.9999 17.2423 29.1599 17.8619 28.4843C18.4214 27.8738 18.8636 27.3912 19.7714 27.3912C20.6805 27.3912 21.1241 27.8738 21.6849 28.4843C22.3045 29.1586 23.0753 29.9999 24.5597 29.9999C26.044 29.9999 26.8149 29.1599 27.4345 28.4843C27.9939 27.8738 28.4374 27.3912 29.3478 27.3912C29.7078 27.3912 30 27.099 30 26.739C30 26.379 29.7078 26.0869 29.3478 26.0869Z" fill="#C6A598"/>
<path d="M29.3478 23.4785C27.8635 23.4785 27.0926 24.3185 26.4743 24.9941C25.9148 25.6046 25.4713 26.0872 24.5609 26.0872C23.6504 26.0872 23.207 25.6046 22.6461 24.9941C22.0265 24.3185 21.2544 23.4785 19.7713 23.4785C18.2896 23.4785 17.52 24.3185 16.9004 24.9941C16.3409 25.6046 15.8987 26.0872 14.9909 26.0872C14.0843 26.0872 13.6421 25.6046 13.0826 24.9941C12.4643 24.3198 11.6948 23.4785 10.2118 23.4785C8.72871 23.4785 7.95913 24.3198 7.34086 24.9941C6.78258 25.6046 6.34041 26.0872 5.43258 26.0872C4.52476 26.0872 4.08259 25.6046 3.52302 24.9941C2.90476 24.3198 2.13389 23.4785 0.652194 23.4785C0.292194 23.4785 0 23.7707 0 24.1307C0 24.4907 0.292194 24.7829 0.652194 24.7829C1.56002 24.7829 2.00219 25.2655 2.56176 25.8759C3.18002 26.5503 3.95089 27.3916 5.43258 27.3916C6.91428 27.3916 7.68387 26.5503 8.30347 25.8759C8.86175 25.2655 9.30521 24.7829 10.2118 24.7829C11.1183 24.7829 11.5605 25.2655 12.12 25.8759C12.7382 26.5503 13.5091 27.3916 14.9909 27.3916C16.4726 27.3916 17.2421 26.5515 17.8617 25.8759C18.4213 25.2655 18.8635 24.7829 19.7713 24.7829C20.6804 24.7829 21.1239 25.2655 21.6848 25.8759C22.3043 26.5503 23.0752 27.3916 24.5595 27.3916C26.0439 27.3916 26.8147 26.5515 27.4343 25.8759C27.9939 25.2655 28.4374 24.7829 29.3478 24.7829C29.7078 24.7829 30 24.4907 30 24.1307C30 23.7707 29.7078 23.4785 29.3478 23.4785Z" fill="#C6A598"/>
<path d="M27.3159 16.0009C27.2259 15.8314 27.0667 15.7101 26.8802 15.6683L15.1411 13.0596C15.0485 13.0387 14.9506 13.0387 14.8581 13.0596L3.11895 15.6683C2.93241 15.7101 2.77332 15.8314 2.68332 16.0009C2.5946 16.1705 2.58421 16.37 2.65464 16.5474L6.56236 26.3157C6.64062 26.5113 6.8076 26.6574 7.01236 26.707C7.21584 26.7527 7.43234 26.7057 7.59278 26.5687C7.8393 26.3562 8.06234 26.1175 8.2841 25.8774C8.85021 25.2657 9.2963 24.7831 10.2119 24.7831C11.1276 24.7831 11.5737 25.267 12.1398 25.8774C12.3667 26.1227 12.5963 26.3678 12.8493 26.5844C12.9667 26.6849 13.1167 26.7396 13.2707 26.7396H14.348V16.3048C14.348 15.9448 14.6402 15.6526 15.0002 15.6526C15.3602 15.6526 15.6524 15.9448 15.6524 16.3048V26.7396H16.7115C16.8667 26.7396 17.0154 26.6849 17.1341 26.5844C17.3885 26.3679 17.6167 26.1239 17.8437 25.8774C18.4098 25.2657 18.8559 24.7831 19.7715 24.7831C20.6898 24.7831 21.1372 25.267 21.7033 25.8787C21.9276 26.1213 22.1545 26.3639 22.4063 26.5779C22.5668 26.7135 22.7794 26.7644 22.9855 26.7148C23.1889 26.6639 23.3559 26.5192 23.4342 26.3235L27.3446 16.5474C27.4162 16.3687 27.4059 16.1692 27.3159 16.0009Z" fill="#C6A598"/>
<path d="M8.47837 0C8.11837 0 7.82617 0.292194 7.82617 0.652194V2.60871H13.0435V0H8.47837Z" fill="#C6A598"/>
<path d="M21.5215 0H14.3477V2.60871H22.1737V0.652194C22.1737 0.292194 21.8815 0 21.5215 0Z" fill="#C6A598"/>
<path d="M14.3476 3.91309H10.4346V7.82613H14.3476V3.91309Z" fill="#C6A598"/>
<path d="M24.1307 3.91309H19.5654V7.82613H24.7828V4.56528C24.7828 4.20528 24.4907 3.91309 24.1307 3.91309Z" fill="#C6A598"/>
<path d="M15.6523 9.13086V11.8374L18.261 12.4165V9.13086H15.6523Z" fill="#C6A598"/>
<path d="M10.4346 9.13086V12.7061L14.3476 11.8374V9.13086H10.4346Z" fill="#C6A598"/>
<path d="M5.86997 3.91309C5.50997 3.91309 5.21777 4.20528 5.21777 4.56528V7.82613H9.13081V3.91309H5.86997Z" fill="#C6A598"/>
<path d="M19.5654 9.13086V12.7061L23.9898 13.6896C24.0368 13.7 24.0837 13.7052 24.1307 13.7052C24.2781 13.7052 24.4215 13.6556 24.5389 13.5617C24.6928 13.4378 24.7828 13.2513 24.7828 13.053V9.13086H19.5654Z" fill="#C6A598"/>
<path d="M5.21777 9.13086V13.053C5.21777 13.2513 5.30777 13.4378 5.46167 13.5617C5.6169 13.6856 5.82167 13.7313 6.01078 13.6896L9.13076 12.997V9.13086H5.21777Z" fill="#C6A598"/>
<path d="M18.261 3.91309H15.6523V7.82613H18.261V3.91309Z" fill="#C6A598"/>
</svg>
