<svg width="28" height="28" viewBox="0 0 28 28" fill="none" xmlns="http://www.w3.org/2000/svg">
<path d="M5.24966 18.667C3.64081 18.667 2.33301 19.976 2.33301 21.5836C2.33301 23.1913 3.64081 24.5003 5.24966 24.5003C6.85851 24.5003 8.16631 23.1913 8.16631 21.5837C8.16631 19.976 6.85851 18.667 5.24966 18.667ZM5.24966 23.3337C4.28481 23.3337 3.49966 22.5485 3.49966 21.5837C3.49966 20.6188 4.28481 19.8337 5.24966 19.8337C6.21451 19.8337 6.99966 20.6188 6.99966 21.5837C6.99966 22.5485 6.21451 23.3337 5.24966 23.3337Z" fill="#C6A598"/>
<path d="M22.7497 18.667C21.1408 18.667 19.833 19.976 19.833 21.5836C19.833 23.1913 21.1408 24.5003 22.7497 24.5003C24.3585 24.5003 25.6663 23.1913 25.6663 21.5837C25.6663 19.976 24.3585 18.667 22.7497 18.667ZM22.7497 23.3337C21.7848 23.3337 20.9997 22.5485 20.9997 21.5837C20.9997 20.6188 21.7848 19.8337 22.7497 19.8337C23.7145 19.8337 24.4997 20.6188 24.4997 21.5837C24.4997 22.5485 23.7145 23.3337 22.7497 23.3337Z" fill="#C6A598"/>
<path d="M26.6758 14.3804C25.8289 14.168 25.0554 13.7305 24.4394 13.1145L19.1789 7.85515C18.7017 7.378 18.088 7.0863 17.4265 7.0163L15.4046 4.2233C15.0769 3.77065 14.5471 3.5 13.9871 3.5H1.75C0.785148 3.5 0 4.28515 0 5.25V19.25C0 20.8576 1.30785 22.1666 2.91665 22.1666C2.94465 22.1666 2.968 22.155 2.9948 22.1515C2.94815 21.9684 2.91665 21.7805 2.91665 21.5834C2.91665 20.2941 3.96085 19.25 5.25 19.25C6.53915 19.25 7.58335 20.2941 7.58335 21.5834C7.58335 21.7805 7.55185 21.9684 7.5052 22.1515C7.53205 22.155 7.55535 22.1666 7.58335 22.1666H20.4167C20.4447 22.1666 20.4681 22.155 20.4949 22.1515C20.4482 21.9684 20.4167 21.7805 20.4167 21.5834C20.4166 20.2941 21.4609 19.25 22.75 19.25C24.0391 19.25 25.0834 20.2941 25.0834 21.5834C25.0834 21.7805 25.0519 21.9684 25.0052 22.1515C25.0321 22.155 25.0554 22.1666 25.0834 22.1666C26.6921 22.1666 28 20.8576 28 19.25V16.0779C28 15.2729 27.4551 14.5751 26.6758 14.3804ZM11.0834 15.1666H4.08335C3.76135 15.1666 3.5 14.9053 3.5 14.5833C3.5 14.2613 3.76135 14 4.08335 14H11.0834C11.4054 14 11.6667 14.2614 11.6667 14.5834C11.6667 14.9054 11.4054 15.1666 11.0834 15.1666ZM11.0834 11.6666H4.08335C3.76135 11.6666 3.5 11.4053 3.5 11.0833C3.5 10.7613 3.76135 10.5 4.08335 10.5H11.0834C11.4054 10.5 11.6667 10.7614 11.6667 11.0834C11.6667 11.4054 11.4054 11.6666 11.0834 11.6666ZM13.4166 8.16665H4.08335C3.76135 8.16665 3.5 7.9053 3.5 7.5833C3.5 7.2613 3.76135 7 4.08335 7H13.4167C13.7387 7 14.0001 7.26135 14.0001 7.58335C14.0001 7.90535 13.7386 8.16665 13.4166 8.16665ZM18.0834 17.5H16.9167C16.5947 17.5 16.3334 17.2386 16.3334 16.9166C16.3334 16.5946 16.5947 16.3333 16.9167 16.3333H18.0834C18.4054 16.3333 18.6667 16.5946 18.6667 16.9166C18.6667 17.2386 18.4054 17.5 18.0834 17.5ZM21.5834 15.1666H14.5834C14.2614 15.1666 14 14.9053 14 14.5833V9.91665C14 9.59465 14.2614 9.3333 14.5834 9.3333C14.9054 9.3333 15.1667 9.59465 15.1667 9.91665V14H21.5834C21.9054 14 22.1667 14.2614 22.1667 14.5834C22.1667 14.9054 21.9054 15.1666 21.5834 15.1666Z" fill="#C6A598"/>
</svg>

