<svg width="32" height="32" viewBox="0 0 32 32" fill="none" xmlns="http://www.w3.org/2000/svg">
<path d="M31.6844 26.76C26.9904 18.185 22.2944 9.61005 17.5994 1.03505C17.4428 0.738285 17.2083 0.48988 16.9209 0.316605C16.6336 0.14333 16.3044 0.0517578 15.9689 0.0517578C15.6334 0.0517578 15.3042 0.14333 15.0169 0.316605C14.7296 0.48988 14.495 0.738285 14.3384 1.03505C9.64391 9.61005 4.94541 18.185 0.253412 26.76C-0.473088 28.0845 0.452912 29.8015 1.88241 29.8015H30.0574C30.8494 29.8015 31.3814 29.375 31.6589 28.7965C32.0079 28.2455 32.1014 27.514 31.6864 26.759" fill="white"/>
<path d="M14.4581 17.2382L14.0136 10.6072C13.9306 9.3157 13.8906 8.38769 13.8906 7.82469C13.8906 7.05769 14.0906 6.4612 14.4916 6.0307C14.8941 5.6027 15.4231 5.3877 16.0791 5.3877C16.8706 5.3877 17.4021 5.6632 17.6681 6.2107C17.9366 6.7617 18.0726 7.5527 18.0726 8.58619C18.0726 9.1937 18.0396 9.8127 17.9736 10.4402L17.3786 17.2647C17.3141 18.0777 17.1766 18.7007 16.9651 19.1342C16.7521 19.5697 16.4011 19.7847 15.9106 19.7847C15.4146 19.7847 15.0656 19.5752 14.8746 19.1562C14.6781 18.7357 14.5406 18.0962 14.4581 17.2382ZM15.9941 26.3467C15.4316 26.3467 14.9411 26.1657 14.5206 25.8002C14.1001 25.4362 13.8906 24.9262 13.8906 24.2712C13.8906 23.6997 14.0906 23.2112 14.4916 22.8107C14.8941 22.4077 15.3846 22.2077 15.9671 22.2077C16.5496 22.2077 17.0436 22.4077 17.4556 22.8107C17.8631 23.2112 18.0726 23.6997 18.0726 24.2712C18.0726 24.9162 17.8631 25.4252 17.4496 25.7932C17.0521 26.1554 16.5319 26.3533 15.9941 26.3467Z" fill="#C6A598"/>
</svg>
