<svg width="34" height="34" viewBox="0 0 34 34" fill="none" xmlns="http://www.w3.org/2000/svg">
<path d="M20.7919 21.1013H17.9961V18.8556C19.2776 18.4356 20.2061 17.2289 20.2061 15.8087V11.7314C19.3491 12.4838 18.2273 12.9415 17 12.9415C15.7727 12.9415 14.6509 12.4838 13.7939 11.7314V15.8087C13.7939 17.2289 14.7223 18.4356 16.0038 18.8556V21.1013H13.208V26.0286H20.7919V21.1013H20.7919Z" fill="#C6A598"/>
<path d="M3.63184 21.1006H11.2157V26.028H3.63184V21.1006Z" fill="#C6A598"/>
<path d="M22.7842 21.1006H30.3681V26.028H22.7842V21.1006Z" fill="#C6A598"/>
<path d="M2.98859 28.0205C1.34072 28.0205 0 29.3612 0 31.0092C0 32.6571 1.34072 33.9978 2.98859 33.9978H31.0113C32.6593 33.9978 33.9999 32.6571 33.9999 31.0092C33.9999 29.3612 32.6592 28.0205 31.0113 28.0205H2.98859Z" fill="#C6A598"/>
<path d="M16.9999 3.20811C19.6833 3.20811 21.8664 5.39126 21.8664 8.07463C21.8664 8.38882 21.8354 8.69578 21.7782 8.9935C24.3153 8.56049 26.2533 6.34726 26.2533 3.6886V1.9943H31.4334V0.00195312H2.56641V1.9943H7.74652V3.68867C7.74652 6.34733 9.68441 8.56056 12.2216 8.99357C12.1644 8.69578 12.1334 8.38889 12.1334 8.07469C12.1333 5.39126 14.3164 3.20811 16.9999 3.20811Z" fill="#C6A598"/>
<path d="M17.0001 10.9485C18.5849 10.9485 19.8743 9.65914 19.8743 8.07436C19.8743 6.48958 18.5849 5.2002 17.0001 5.2002C15.4154 5.2002 14.126 6.48958 14.126 8.07436C14.126 9.65921 15.4154 10.9485 17.0001 10.9485ZM16.004 7.1446H17.9963V9.13708H16.004V7.1446Z" fill="#C6A598"/>
</svg>
