<svg width="36" height="36" viewBox="0 0 36 36" fill="none" xmlns="http://www.w3.org/2000/svg">
<g clip-path="url(#clip0)">
<path d="M32.4307 23.9626H30.9959C31.0339 23.759 31.1194 23.5135 31.2941 23.2428C31.8316 22.4098 31.9466 21.6741 32.048 21.0249C32.1119 20.6158 32.1723 20.2295 32.3366 19.7837C32.4821 19.3888 32.762 19.0681 33.0486 18.8237L34.0404 21.2684L36 20.4734L32.454 11.7051L31.5925 11.8794C31.4942 11.8993 29.1673 12.3978 27.7122 15.0921C26.6503 17.0587 24.2593 18.5856 21.3505 19.1975L20.7707 17.0704L19.7368 17.373C18.0291 17.8728 17.0364 18.323 15.5085 19.2259C15.5002 19.2367 15.4917 19.2479 15.4835 19.2586L11.4669 24.6522H8.17017C8.17017 24.6522 6.32301 22.1342 5.26762 20.7294C4.67929 20.9537 4.16217 21.2797 3.71159 21.7099C2.57167 22.7983 2.10762 24.5991 2.47418 26.2466L0 27.892L2.9254 33.1826H4.34446L5.44088 31.9487C6.54746 30.7035 8.13747 29.9893 9.80325 29.9893C11.2084 29.9893 12.5691 30.4987 13.6346 31.4236C14.8473 32.4762 16.0264 33.0541 17.1354 33.1774C18.4087 33.3189 19.1765 33.0073 20.2044 32.6777C20.9834 32.4279 21.5786 32.1714 22.5996 32.3038C23.031 32.3597 23.4238 32.3864 23.7835 32.3864C25.8014 32.3863 26.7686 31.5448 27.5307 30.2943C27.7939 29.8624 28.1617 29.614 28.5118 29.5037C29.4289 29.2147 30.2715 30.2901 30.2715 30.2901L32.2694 29.3081C32.6249 30.2864 32.8055 31.3097 32.8055 32.3542H34.9203C34.9203 30.943 34.6545 29.563 34.1306 28.2526L32.4307 23.9626Z" fill="#C6A598"/>
<path d="M9.24139 22.5369H10.395L13.8024 17.9745C15.2407 16.0928 17.2106 13.5156 17.2106 10.1814C17.2106 6.10526 13.8944 2.78906 9.81822 2.78906C5.74205 2.78906 2.42578 6.10526 2.42578 10.1814C2.42578 13.5156 4.3956 16.0928 5.83397 17.9745L9.24139 22.5369ZM6.29823 10.1814C6.29823 8.24052 7.87731 6.66144 9.81822 6.66144C11.7591 6.66144 13.3382 8.24052 13.3382 10.1814C13.3382 12.1223 11.7591 13.7014 9.81822 13.7014C7.87731 13.7014 6.29823 12.1224 6.29823 10.1814Z" fill="#C6A598"/>
<path d="M11.1214 10.7213C11.4187 10.0042 11.0783 9.18192 10.3612 8.88467C9.64408 8.58743 8.82178 8.9278 8.52454 9.64491C8.22729 10.362 8.56766 11.1843 9.28478 11.4816C10.0019 11.7788 10.8242 11.4384 11.1214 10.7213Z" fill="#C6A598"/>
</g>
<defs>
<clipPath id="clip0">
<rect width="36" height="36" fill="white"/>
</clipPath>
</defs>
</svg>
