<svg width="34" height="34" viewBox="0 0 34 34" fill="none" xmlns="http://www.w3.org/2000/svg">
<g clip-path="url(#clip0)">
<path d="M3.44699 22.3093C3.44699 22.3093 2.49381 26.8396 4.70012 29.046C6.90644 31.2523 11.4368 30.2991 11.4368 30.2991C11.4368 30.2991 12.39 25.7688 10.1836 23.5624C7.97733 21.3561 3.44699 22.3093 3.44699 22.3093Z" fill="#C6A598"/>
<path d="M9.14284 17.5471C9.14284 17.5471 10.096 13.0168 7.88971 10.8105C5.68339 8.60416 1.15305 9.55735 1.15305 9.55735C1.15305 9.55735 0.199859 14.0877 2.40618 16.294C4.6125 18.5003 9.14284 17.5471 9.14284 17.5471Z" fill="#C6A598"/>
<path d="M20.456 17.1613C20.456 14.0411 16.5786 11.5117 16.5786 11.5117C16.5786 11.5117 12.7012 14.0412 12.7012 17.1613C12.7012 20.2816 16.5786 22.811 16.5786 22.811C16.5786 22.811 20.456 20.2816 20.456 17.1613Z" fill="#C6A598"/>
<path d="M27.4025 11.8945C30.5228 11.8945 33.0522 8.01708 33.0522 8.01708C33.0522 8.01708 30.5227 4.13965 27.4025 4.13965C24.2824 4.13965 21.7529 8.01708 21.7529 8.01708C21.7529 8.01708 24.2823 11.8945 27.4025 11.8945Z" fill="#C6A598"/>
<path d="M17.8194 6.94144C20.0257 4.73512 19.0725 0.204777 19.0725 0.204777C19.0725 0.204777 14.5423 -0.748346 12.3359 1.45797C10.1295 3.66429 11.0827 8.19464 11.0827 8.19464C11.0827 8.19464 15.6131 9.14776 17.8194 6.94144Z" fill="#C6A598"/>
<path d="M21.3098 26.2451C18.1895 26.2451 15.6602 30.1225 15.6602 30.1225C15.6602 30.1225 18.1896 33.9999 21.3098 33.9999C24.43 33.9999 26.9594 30.1225 26.9594 30.1225C26.9594 30.1225 24.43 26.2451 21.3098 26.2451Z" fill="#C6A598"/>
<path d="M25.7138 16.2636C23.5075 18.47 24.4607 23.0003 24.4607 23.0003C24.4607 23.0003 28.991 23.9534 31.1973 21.7471C33.4036 19.5408 32.4505 15.0104 32.4505 15.0104C32.4505 15.0104 27.9201 14.0573 25.7138 16.2636Z" fill="#C6A598"/>
</g>
<defs>
<clipPath id="clip0">
<rect width="34" height="34" fill="white"/>
</clipPath>
</defs>
</svg>
