<svg width="18" height="16" viewBox="0 0 18 16" fill="none" xmlns="http://www.w3.org/2000/svg">
<g clip-path="url(#clip0)">
<path d="M13.6943 7.946C15.6439 7.946 17.2245 7.06266 17.2245 5.973C17.2245 4.88334 15.6439 4 13.6943 4C11.7446 4 10.1641 4.88334 10.1641 5.973C10.1641 7.06266 11.7446 7.946 13.6943 7.946Z" fill="#C6A598"/>
<path fill-rule="evenodd" clip-rule="evenodd" d="M13.747 9.0815C11.2221 9.0815 10.2168 8.0405 10.2168 7.4375V10.0205C10.2168 11.1105 11.7974 11.9925 13.747 11.9925C15.6986 11.9925 17.2792 11.1105 17.2792 10.0205V7.4995C17.2792 8.1035 16.2729 9.0815 13.747 9.0815Z" fill="#C6A598"/>
<path fill-rule="evenodd" clip-rule="evenodd" d="M13.747 13.0715C11.4884 13.0715 10.2168 12.0705 10.2168 11.4675V14.0265C10.2168 15.1165 11.7974 15.9995 13.747 15.9995C15.6986 15.9995 17.2792 15.1165 17.2792 14.0265V11.4365C17.2792 12.0395 16.0066 13.0715 13.747 13.0715Z" fill="#C6A598"/>
<path d="M5.01747 3.946C7.22763 3.946 9.01932 3.06266 9.01932 1.973C9.01932 0.883343 7.22763 0 5.01747 0C2.80731 0 1.01562 0.883343 1.01562 1.973C1.01562 3.06266 2.80731 3.946 5.01747 3.946Z" fill="#C6A598"/>
<path fill-rule="evenodd" clip-rule="evenodd" d="M5.14442 5.0815C2.28306 5.0815 1.14258 4.0405 1.14258 3.4375V6.0205C1.14258 7.1105 2.93462 7.9925 5.14442 7.9925C7.35626 7.9925 9.14728 7.1105 9.14728 6.0205V3.4995C9.14728 4.1035 8.00579 5.0815 5.14442 5.0815Z" fill="#C6A598"/>
<path fill-rule="evenodd" clip-rule="evenodd" d="M5.14442 9.0725C2.58393 9.0725 1.14258 8.0715 1.14258 7.4685V10.0275C1.14258 11.1175 2.93462 12.0005 5.14442 12.0005C7.35626 12.0005 9.14728 11.1175 9.14728 10.0275V7.4375C9.14728 8.0405 7.7039 9.0725 5.14442 9.0725Z" fill="#C6A598"/>
<path fill-rule="evenodd" clip-rule="evenodd" d="M5.14442 13.0715C2.58393 13.0715 1.14258 12.0705 1.14258 11.4675V14.0265C1.14258 15.1165 2.93462 15.9995 5.14442 15.9995C7.35626 15.9995 9.14728 15.1165 9.14728 14.0265V11.4365C9.14728 12.0395 7.7039 13.0715 5.14442 13.0715Z" fill="#C6A598"/>
</g>
<defs>
<clipPath id="clip0">
<rect width="17.28" height="16" fill="white"/>
</clipPath>
</defs>
</svg>
