<svg width="39" height="32" viewBox="0 0 39 32" fill="none" xmlns="http://www.w3.org/2000/svg">
<path d="M10.9716 5.35742L13.326 12.6017H20.9432L14.7855 17.0868L17.1399 24.3311L10.9716 19.8567L4.80327 24.3311L7.16832 17.0868L1 12.6017H8.61719L10.9716 5.35742Z" fill="#C6A598"/>
<path d="M28.3796 31.0003L26.5792 28.7844L23.9158 29.8177L25.4606 27.4207L23.6602 25.1942L26.4194 25.9292L27.9748 23.5322L28.1239 26.3873L30.8938 27.1224L28.2198 28.1452L28.3796 31.0003Z" fill="#C6A598"/>
<path d="M31.9584 24.501L32.8106 21.7737L30.4775 20.1224L33.3327 20.0798L34.1743 17.3525L35.1011 20.0585L37.9562 20.0265L35.6657 21.7311L36.5819 24.4371L34.2488 22.7858L31.9584 24.501Z" fill="#C6A598"/>
<path d="M36.7847 8.77672L35.5276 11.3442L37.5731 13.3364L34.7499 12.9315L33.4928 15.4884L33.0028 12.6759L30.1689 12.271L32.7045 10.9394L32.2144 8.11621L34.2599 10.1084L36.7847 8.77672Z" fill="#C6A598"/>
<path d="M28.4539 1L28.2409 3.84446L30.8936 4.92046L28.113 5.60227L27.9106 8.45739L26.4085 6.02841L23.6279 6.71023L25.471 4.52628L23.9582 2.10795L26.6109 3.18395L28.4539 1Z" fill="#C6A598"/>
</svg>
