<svg width="30" height="30" viewBox="0 0 30 30" fill="none" xmlns="http://www.w3.org/2000/svg">
<g clip-path="url(#clip0)">
<path d="M10.3913 22.6371C10.1225 22.4221 9.73003 22.4671 9.51253 22.7346L4.51248 28.9845C4.2975 29.2545 4.34121 29.6471 4.60998 29.8633C4.725 29.9545 4.86375 29.9995 4.99998 29.9995C5.1825 29.9995 5.36497 29.9195 5.48872 29.7658L10.4887 23.5158C10.7037 23.2458 10.66 22.8533 10.3913 22.6371Z" fill="#C6A598"/>
<path d="M25.4877 28.9842L20.4877 22.7341C20.2728 22.4667 19.879 22.4204 19.609 22.6366C19.3402 22.8529 19.2965 23.2454 19.5115 23.5154L24.5115 29.7654C24.6352 29.9204 24.8165 30.0004 25.0002 30.0004C25.1377 30.0004 25.2752 29.9554 25.3902 29.8629C25.6589 29.6467 25.7027 29.2542 25.4877 28.9842Z" fill="#C6A598"/>
<path d="M23.75 27.5H6.25002C5.90502 27.5 5.625 27.78 5.625 28.125C5.625 28.47 5.90502 28.75 6.25002 28.75H23.75C24.095 28.75 24.3751 28.47 24.3751 28.125C24.375 27.78 24.095 27.5 23.75 27.5Z" fill="#C6A598"/>
<path d="M21.875 25H8.12502C7.78002 25 7.5 25.28 7.5 25.625C7.5 25.97 7.78002 26.25 8.12502 26.25H21.875C22.22 26.25 22.5001 25.97 22.5001 25.625C22.5 25.28 22.22 25 21.875 25Z" fill="#C6A598"/>
<path d="M8.75002 20C9.09521 20 9.37504 19.7202 9.37504 19.375C9.37504 19.0298 9.09521 18.75 8.75002 18.75C8.40483 18.75 8.125 19.0298 8.125 19.375C8.125 19.7202 8.40483 20 8.75002 20Z" fill="#C6A598"/>
<path d="M24.57 4.13127C24.4425 1.815 22.5237 0 20.2025 0H9.7975C7.47625 0 5.55748 1.815 5.42998 4.1325L5.03125 11.3062C8.64625 11.7875 13.5337 15.9575 15 17.2775C16.4662 15.9575 21.3537 11.7875 24.9687 11.305L24.57 4.13127ZM14.375 10C14.375 10.3188 14.1362 10.5862 13.8187 10.6213L8.19373 11.2463C8.17123 11.2488 8.14873 11.2501 8.125 11.2501C7.97125 11.2501 7.82377 11.1938 7.70875 11.0913C7.57627 10.9726 7.49998 10.8026 7.49998 10.6251V6.25008C7.49998 5.93133 7.73875 5.66385 8.05621 5.62881L13.6812 5.00379C13.8587 4.98504 14.0349 5.04006 14.1675 5.16006C14.2987 5.27754 14.375 5.44758 14.375 5.62506V10ZM13.125 3.12498C13.125 2.09121 13.9662 1.24998 15 1.24998C16.0337 1.24998 16.875 2.09121 16.875 3.12498C16.875 4.15875 16.0337 4.99998 15 4.99998C13.9662 4.99998 13.125 4.15875 13.125 3.12498ZM22.5 10.625C22.5 10.8025 22.4237 10.9725 22.2912 11.0912C22.1762 11.1937 22.0287 11.2499 21.875 11.2499C21.8512 11.2499 21.8287 11.2487 21.8062 11.2462L16.1812 10.6212C15.8637 10.5862 15.625 10.3187 15.625 9.9999V5.625C15.625 5.44752 15.7012 5.27748 15.8338 5.15877C15.9662 5.04 16.1425 4.98504 16.32 5.0025L21.9438 5.62875C22.2613 5.66373 22.5 5.93127 22.5 6.25002V10.625H22.5Z" fill="#C6A598"/>
<path d="M21.25 20C21.5952 20 21.875 19.7202 21.875 19.375C21.875 19.0298 21.5952 18.75 21.25 18.75C20.9048 18.75 20.625 19.0298 20.625 19.375C20.625 19.7202 20.9048 20 21.25 20Z" fill="#C6A598"/>
<path d="M15 3.75004C15.3452 3.75004 15.6251 3.47021 15.6251 3.12502C15.6251 2.77983 15.3452 2.5 15 2.5C14.6548 2.5 14.375 2.77983 14.375 3.12502C14.375 3.47021 14.6548 3.75004 15 3.75004Z" fill="#C6A598"/>
<path d="M25.4764 20.4512L25.0376 12.5537C21.2739 13.1024 15.4901 18.5212 15.4289 18.5787C15.3926 18.6137 15.3476 18.6325 15.3052 18.6575C15.2801 18.6712 15.2602 18.6925 15.2339 18.7025C15.1589 18.7337 15.0802 18.75 15.0002 18.75C14.9202 18.75 14.8402 18.7338 14.7652 18.7025C14.7401 18.6925 14.7202 18.6725 14.6951 18.6587C14.6527 18.635 14.6077 18.6149 14.5702 18.58C14.5089 18.5225 8.72642 13.1037 4.96142 12.5549L4.52267 20.4524C4.47392 21.3187 4.77644 22.1437 5.37269 22.7737C5.96894 23.4025 6.77519 23.7499 7.64267 23.7499H22.3564C23.2239 23.7499 24.0302 23.4024 24.6264 22.7724C25.2227 22.1424 25.5251 21.3175 25.4764 20.4512ZM8.75009 21.25C7.71632 21.25 6.87509 20.4087 6.87509 19.375C6.87509 18.3412 7.71632 17.5 8.75009 17.5C9.78386 17.5 10.6251 18.3412 10.6251 19.375C10.6251 20.4087 9.78386 21.25 8.75009 21.25ZM21.2501 21.25C20.2164 21.25 19.3751 20.4087 19.3751 19.375C19.3751 18.3412 20.2164 17.5 21.2501 17.5C22.2839 17.5 23.1251 18.3412 23.1251 19.375C23.1251 20.4087 22.2838 21.25 21.2501 21.25Z" fill="#C6A598"/>
</g>
<defs>
<clipPath id="clip0">
<rect width="30" height="30" fill="white"/>
</clipPath>
</defs>
</svg>
