<svg width="25" height="25" viewBox="0 0 25 25" fill="none" xmlns="http://www.w3.org/2000/svg">
<g clip-path="url(#clip0)">
<path d="M8.65922 18.8644C8.43525 18.6852 8.10819 18.7227 7.92694 18.9456L3.76024 24.1539C3.58109 24.3789 3.61752 24.706 3.84149 24.8862C3.93734 24.9622 4.05297 24.9997 4.16649 24.9997C4.31859 24.9997 4.47064 24.9331 4.57377 24.805L8.74042 19.5966C8.91962 19.3717 8.88319 19.0446 8.65922 18.8644Z" fill="#5489F0"/>
<path d="M21.2394 24.1535L17.0728 18.9451C16.8936 18.7222 16.5655 18.6836 16.3405 18.8639C16.1165 19.0441 16.0801 19.3711 16.2593 19.5961L20.4259 24.8045C20.529 24.9336 20.6801 25.0003 20.8332 25.0003C20.9478 25.0003 21.0623 24.9628 21.1582 24.8857C21.3821 24.7056 21.4186 24.3785 21.2394 24.1535Z" fill="#5489F0"/>
<path d="M19.7917 22.917H5.20835C4.92085 22.917 4.6875 23.1503 4.6875 23.4378C4.6875 23.7253 4.92085 23.9587 5.20835 23.9587H19.7917C20.0792 23.9587 20.3125 23.7253 20.3125 23.4378C20.3125 23.1503 20.0792 22.917 19.7917 22.917Z" fill="#5489F0"/>
<path d="M18.2292 20.833H6.77085C6.48335 20.833 6.25 21.0664 6.25 21.3539C6.25 21.6414 6.48335 21.8747 6.77085 21.8747H18.2292C18.5167 21.8747 18.75 21.6414 18.75 21.3539C18.75 21.0663 18.5167 20.833 18.2292 20.833Z" fill="#5489F0"/>
<path d="M7.29185 16.6667C7.5795 16.6667 7.8127 16.4335 7.8127 16.1458C7.8127 15.8582 7.5795 15.625 7.29185 15.625C7.00419 15.625 6.771 15.8582 6.771 16.1458C6.771 16.4335 7.00419 16.6667 7.29185 16.6667Z" fill="#5489F0"/>
<path d="M20.4751 3.44272C20.3689 1.5125 18.7699 0 16.8355 0H8.16475C6.23037 0 4.6314 1.5125 4.52515 3.44375L4.19287 9.42188C7.20537 9.8229 11.2783 13.2979 12.5001 14.3979C13.722 13.2979 17.7949 9.8229 20.8074 9.4208L20.4751 3.44272ZM11.9793 8.33335C11.9793 8.59897 11.7803 8.82187 11.5158 8.85107L6.82827 9.37192C6.80952 9.37402 6.79077 9.37505 6.771 9.37505C6.64287 9.37505 6.51997 9.32817 6.42412 9.24277C6.31372 9.1438 6.25015 9.00215 6.25015 8.85425V5.2084C6.25015 4.94277 6.44912 4.71987 6.71367 4.69067L11.4012 4.16982C11.5491 4.1542 11.6959 4.20005 11.8064 4.30005C11.9158 4.39795 11.9793 4.53965 11.9793 4.68755V8.33335ZM10.9376 2.60415C10.9376 1.74268 11.6387 1.04165 12.5001 1.04165C13.3616 1.04165 14.0626 1.74268 14.0626 2.60415C14.0626 3.46562 13.3616 4.16665 12.5001 4.16665C11.6387 4.16665 10.9376 3.46562 10.9376 2.60415ZM18.7501 8.85415C18.7501 9.00205 18.6866 9.14375 18.5762 9.24267C18.4803 9.32808 18.3574 9.37495 18.2293 9.37495C18.2095 9.37495 18.1908 9.37393 18.172 9.37183L13.4845 8.85098C13.2199 8.82183 13.021 8.59888 13.021 8.33325V4.6875C13.021 4.5396 13.0845 4.3979 13.195 4.29897C13.3054 4.2 13.4522 4.1542 13.6002 4.16875L18.2867 4.69062C18.5513 4.71978 18.7502 4.94272 18.7502 5.20835V8.85415H18.7501Z" fill="#5489F0"/>
<path d="M17.7083 16.6667C17.996 16.6667 18.2292 16.4335 18.2292 16.1458C18.2292 15.8582 17.996 15.625 17.7083 15.625C17.4207 15.625 17.1875 15.8582 17.1875 16.1458C17.1875 16.4335 17.4207 16.6667 17.7083 16.6667Z" fill="#5489F0"/>
<path d="M12.4999 3.12471C12.7875 3.12471 13.0207 2.89151 13.0207 2.60386C13.0207 2.3162 12.7875 2.08301 12.4999 2.08301C12.2122 2.08301 11.979 2.3162 11.979 2.60386C11.979 2.89151 12.2122 3.12471 12.4999 3.12471Z" fill="#5489F0"/>
<path d="M21.2303 17.0432L20.8647 10.4619C17.7282 10.9192 12.9084 15.4348 12.8574 15.4828C12.8272 15.5119 12.7897 15.5275 12.7543 15.5484C12.7334 15.5599 12.7168 15.5775 12.6949 15.5859C12.6324 15.6119 12.5668 15.6255 12.5001 15.6255C12.4335 15.6255 12.3668 15.612 12.3043 15.5859C12.2834 15.5775 12.2668 15.5609 12.2459 15.5494C12.2105 15.5296 12.173 15.5129 12.1418 15.4838C12.0908 15.4359 7.27202 10.9203 4.13452 10.4629L3.76889 17.0442C3.72827 17.7661 3.98037 18.4536 4.47724 18.9786C4.97412 19.5025 5.64599 19.7921 6.36889 19.7921H18.6304C19.3533 19.7921 20.0251 19.5025 20.522 18.9775C21.0189 18.4525 21.2709 17.765 21.2303 17.0432ZM7.29174 17.7088C6.43027 17.7088 5.72924 17.0078 5.72924 16.1463C5.72924 15.2848 6.43027 14.5838 7.29174 14.5838C8.15322 14.5838 8.85424 15.2848 8.85424 16.1463C8.85424 17.0077 8.15322 17.7088 7.29174 17.7088ZM17.7084 17.7088C16.847 17.7088 16.1459 17.0078 16.1459 16.1463C16.1459 15.2848 16.847 14.5838 17.7084 14.5838C18.5699 14.5838 19.2709 15.2848 19.2709 16.1463C19.2709 17.0077 18.5699 17.7088 17.7084 17.7088Z" fill="#5489F0"/>
</g>
<defs>
<clipPath id="clip0">
<rect width="25" height="25" fill="white"/>
</clipPath>
</defs>
</svg>
