<svg width="34" height="34" viewBox="0 0 34 34" fill="none" xmlns="http://www.w3.org/2000/svg">
<path d="M33.0039 2.05859H0.996094C0.44552 2.05859 0 2.50411 0 3.05469V6.04297H1.27918C3.45618 6.04297 5.71904 5.16846 7.87565 3.44376C10.1052 1.65777 13.9339 1.65684 16.1635 3.44476C18.32 5.16846 20.5165 6.04297 22.6935 6.04297H34V3.05469C34 2.50411 33.5545 2.05859 33.0039 2.05859Z" fill="#C6A598"/>
<path d="M14.9182 9.07879C16.0229 8.19552 17.1483 7.5381 18.2839 7.03905C17.1484 6.54014 16.0229 5.88292 14.9182 5.00005C13.391 3.77439 10.6478 3.77539 9.12062 4.99905C8.01595 5.88232 6.8905 6.53975 5.75488 7.03879C6.89043 7.5377 8.01588 8.19492 9.12062 9.07779C10.6479 10.3035 13.391 10.3025 14.9182 9.07879ZM11.0234 6.04283H13.0155C13.5661 6.04283 14.0116 6.48835 14.0116 7.03892C14.0116 7.5895 13.5661 8.03502 13.0155 8.03502H11.0234C10.4728 8.03502 10.0273 7.5895 10.0273 7.03892C10.0273 6.48835 10.4728 6.04283 11.0234 6.04283Z" fill="#C6A598"/>
<path d="M18.6507 13.7462C16.8346 15.2014 14.4786 16.0039 12.0195 16.0039H33.0039C33.5545 16.0039 34 15.5584 34 15.0078V12.0195H22.6935C21.4445 12.0195 20.0846 12.6003 18.6507 13.7462Z" fill="#C6A598"/>
<path d="M1.27918 12.0195H0V15.0078C0 15.5584 0.44552 16.0039 0.996094 16.0039H12.0195C9.55945 16.0039 7.20348 15.2004 5.38442 13.7422C3.9535 12.5993 2.52815 12.0195 1.27918 12.0195Z" fill="#C6A598"/>
<path d="M16.1634 10.6344C15.0487 11.5273 13.5769 12.0195 12.0195 12.0195C10.4622 12.0195 8.99041 11.5273 7.87565 10.6334C5.71904 8.90966 3.45618 8.03516 1.27918 8.03516H0V10.0273H1.27918C2.9912 10.0273 4.83484 10.754 6.62861 12.1869C9.56536 14.54 14.4738 14.54 17.4067 12.1908C19.2023 10.755 20.9815 10.0273 22.6935 10.0273H34V8.03516H22.6935C20.5165 8.03516 18.32 8.90966 16.1634 10.6344Z" fill="#C6A598"/>
<path d="M26.1244 26.5719C25.0096 27.4648 23.5378 27.957 21.9805 27.957C20.4231 27.957 18.9513 27.4648 17.8366 26.5709C15.68 24.8472 13.4835 23.9727 11.3065 23.9727H0V25.9648H11.3065C13.0185 25.9648 14.7977 26.6925 16.5925 28.1272C19.5282 30.4793 24.4377 30.4774 27.3695 28.1253C29.1652 26.6915 31.0088 25.9648 32.7208 25.9648H34V23.9727H32.7208C30.5438 23.9727 28.281 24.8472 26.1244 26.5719Z" fill="#C6A598"/>
<path d="M24.8792 25.0163C25.9838 24.133 27.1093 23.4756 28.2449 22.9766C27.1093 22.4777 25.9839 21.8204 24.8792 20.9376C23.3519 19.7119 20.6088 19.7129 19.0816 20.9366C17.9769 21.8198 16.8514 22.4773 15.7158 22.9763C16.8514 23.4752 17.9768 24.1324 19.0816 25.0153C20.6088 26.241 23.3519 26.24 24.8792 25.0163ZM20.9843 21.9803H22.9765C23.5271 21.9803 23.9726 22.4259 23.9726 22.9764C23.9726 23.527 23.5271 23.9725 22.9765 23.9725H20.9843C20.4337 23.9725 19.9882 23.527 19.9882 22.9764C19.9882 22.4259 20.4337 21.9803 20.9843 21.9803Z" fill="#C6A598"/>
<path d="M28.6146 29.6807C26.7965 31.1379 24.4406 31.9414 21.9805 31.9414H33.0039C33.5545 31.9414 34 31.4959 34 30.9453V27.957H32.7208C31.4718 27.957 30.0465 28.5368 28.6146 29.6807Z" fill="#C6A598"/>
<path d="M11.3065 27.957H0V30.9453C0 31.4959 0.44552 31.9414 0.996094 31.9414H21.9805C19.5214 31.9414 17.1654 31.1389 15.3483 29.6827C13.9154 28.5378 12.5555 27.957 11.3065 27.957Z" fill="#C6A598"/>
<path d="M33.0039 17.9961H0.996094C0.44552 17.9961 0 18.4416 0 18.9922V21.9805H11.3065C13.4835 21.9805 15.68 21.106 17.8366 19.3813C20.0661 17.5953 23.8948 17.5943 26.1244 19.3823C28.281 21.106 30.5438 21.9805 32.7208 21.9805H34V18.9922C34 18.4416 33.5545 17.9961 33.0039 17.9961Z" fill="#C6A598"/>
</svg>

